<svg width="600" height="600" viewBox="0 0 600 600" fill="none" xmlns="http://www.w3.org/2000/svg">
<path fill-rule="evenodd" clip-rule="evenodd" d="M547 300.5C547 163.809 436.19 53 299.5 53C162.81 53 52 163.81 52 300.5C52 437.19 162.81 548 299.5 548C436.19 548 547 437.19 547 300.5ZM336.037 190.331C323.523 179.473 304.575 180.816 293.717 193.331C282.859 205.845 284.202 224.793 296.716 235.651L334.499 268.433L183.705 268.433C167.137 268.433 153.705 281.864 153.705 298.433C153.705 315.001 167.137 328.433 183.705 328.433L337.288 328.433L296.19 365.817C283.934 376.965 283.036 395.939 294.185 408.196C305.333 420.452 324.307 421.35 336.564 410.201L435.039 320.625C441.38 314.857 444.951 306.652 444.851 298.081C444.75 289.51 440.988 281.391 434.513 275.773L336.037 190.331Z" fill="white"/>
</svg>
